<svg width="441" height="367" viewBox="0 0 441 367" fill="none" xmlns="http://www.w3.org/2000/svg">
<path d="M271.651 89.7476H168.32V57.5868C168.32 29.0524 191.451 5.92133 219.986 5.92133C248.52 5.92133 271.651 29.0524 271.651 57.5868V89.7476Z" stroke="white" stroke-width="11.8427" stroke-miterlimit="10"/>
<path d="M357.859 366.892H82.1246C73.8525 366.892 67.3352 359.817 68.0315 351.601L70.1761 325.866L72.0978 303.055L73.1006 291.19L74.9945 268.491L91.3157 73.3872C91.9285 66.0621 98.0559 60.436 105.381 60.436H334.575C341.928 60.436 348.056 66.0621 348.64 73.3872L361.285 224.289L362.929 243.814L363.012 244.649L364.683 264.73L371.953 351.601C372.649 359.817 366.132 366.892 357.859 366.892Z" fill="white"/>
<path d="M357.859 366.892H82.1246C73.8525 366.892 67.3352 359.817 68.0315 351.601L70.1761 325.866L72.0978 303.055L73.1006 291.19L74.9945 268.491L91.3157 73.3872C91.9285 66.0621 98.0559 60.436 105.381 60.436H334.575C341.928 60.436 348.056 66.0621 348.64 73.3872L361.285 224.289L362.929 243.814L363.012 244.649L364.683 264.73L371.953 351.601C372.649 359.817 366.132 366.892 357.859 366.892Z" fill="url(#paint0_linear_1288_2222)"/>
<path d="M277.737 340.544H161.508C153.467 340.544 146.949 334.026 146.949 325.985V117.964C146.949 109.923 153.467 103.406 161.508 103.406H277.737C285.778 103.406 292.295 109.923 292.295 117.964V325.985C292.295 334.026 285.778 340.544 277.737 340.544Z" fill="#FF6839"/>
<path d="M277.737 340.544H161.508C153.467 340.544 146.949 334.026 146.949 325.985V117.964C146.949 109.923 153.467 103.406 161.508 103.406H277.737C285.778 103.406 292.295 109.923 292.295 117.964V325.985C292.295 334.026 285.778 340.544 277.737 340.544Z" fill="url(#paint1_linear_1288_2222)"/>
<path d="M277.737 340.544H161.508C153.467 340.544 146.949 334.026 146.949 325.985V117.964C146.949 109.923 153.467 103.406 161.508 103.406H277.737C285.778 103.406 292.295 109.923 292.295 117.964V325.985C292.295 334.026 285.778 340.544 277.737 340.544Z" fill="white"/>
<path d="M261.229 303.929H178.016C172.259 303.929 167.594 299.264 167.594 293.507V144.577C167.594 138.82 172.259 134.155 178.016 134.155H261.229C266.986 134.155 271.651 138.82 271.651 144.577V293.507C271.651 299.264 266.986 303.929 261.229 303.929Z" fill="#FF5E13"/>
<path d="M261.229 303.929H178.016C172.259 303.929 167.594 299.264 167.594 293.507V144.577C167.594 138.82 172.259 134.155 178.016 134.155H261.229C266.986 134.155 271.651 138.82 271.651 144.577V293.507C271.651 299.264 266.986 303.929 261.229 303.929Z" fill="url(#paint2_linear_1288_2222)"/>
<path d="M248.675 228.106L205.132 238.889C203.466 239.302 202.585 241.218 203.441 242.722C208.228 251.143 217.786 254.968 228.704 252.265C234.288 250.882 238.806 248.19 242.08 244.174C243.705 242.181 246.619 241.87 248.707 243.376C251.011 245.041 251.47 248.299 249.739 250.552C245.449 256.139 238.949 260.14 230.777 262.163C210.969 267.069 194.505 257.14 189.95 238.683C185.425 220.342 195.258 203.9 212.982 199.511C230.705 195.121 246.503 204.844 251.201 223.886C251.661 225.757 250.53 227.646 248.675 228.106ZM203.076 230.846L236.318 222.613C237.959 222.206 238.844 220.339 238.038 218.84C233.654 210.694 224.965 206.584 215.317 208.974C205.762 211.34 199.88 218.973 199.798 228.31C199.784 230.014 201.434 231.252 203.076 230.846Z" fill="white"/>
<path d="M292.295 193.334V115.7C292.295 108.912 285.778 103.409 277.737 103.409H161.508C153.467 103.409 146.949 108.912 146.949 115.7V193.334H292.295Z" fill="white"/>
<path d="M143.95 181.729C133.503 181.729 125.03 173.259 125.03 162.809V141.75H162.867V162.809C162.867 173.259 154.397 181.729 143.95 181.729Z" fill="#B2430A"/>
<path d="M181.787 181.729C171.34 181.729 162.87 173.259 162.87 162.809V141.75H200.707V162.809C200.704 173.259 192.234 181.729 181.787 181.729Z" fill="#E5E7EB"/>
<path d="M219.624 181.729C209.176 181.729 200.707 173.259 200.707 162.809V141.75H238.544V162.809C238.541 173.259 230.071 181.729 219.624 181.729Z" fill="#B2430A"/>
<path d="M257.461 181.729C247.014 181.729 238.541 173.259 238.541 162.809V141.75H276.378V162.809C276.378 173.259 267.909 181.729 257.461 181.729Z" fill="#E5E7EB"/>
<path d="M295.298 181.729C284.851 181.729 276.378 173.259 276.378 162.809V141.75H314.215V162.809C314.215 173.259 305.745 181.729 295.298 181.729Z" fill="#B2430A"/>
<path d="M162.867 141.752H125.03L148.707 103.409H177.074L162.867 141.752Z" fill="#FF6110"/>
<path d="M200.704 141.753H162.867L177.074 103.409H205.439L200.704 141.753Z" fill="#F9FAFB"/>
<path d="M238.541 141.753H200.704L205.439 103.409H233.806L238.541 141.753Z" fill="#FF6110"/>
<path d="M276.378 141.753H238.541L233.806 103.409H262.171L276.378 141.753Z" fill="#F9FAFB"/>
<path d="M314.215 141.753H276.378L262.171 103.409H290.538L314.215 141.753Z" fill="#FF6110"/>
<path d="M364.674 261.288C324.211 285.689 270.17 306.403 211.614 317.984C156.712 328.807 107.288 329.701 70.1673 322.429L72.0974 299.612C108.113 308.609 157.745 308.712 213.232 297.752C270.788 286.377 323.796 265.285 362.914 240.366L364.674 261.288Z" fill="#F3F3F3"/>
<path d="M292.296 295.398V275.15C267.694 284.5 241.003 292.268 213.232 297.755C189.903 302.361 167.633 304.991 146.953 305.848V325.991C146.953 326.133 146.992 326.267 146.994 326.409C167.29 325.197 188.976 322.451 211.614 317.986C239.909 312.388 267.131 304.642 292.296 295.398Z" fill="white"/>
<path d="M363.012 244.649C321.568 266.541 267.256 284.143 208.934 292.61C156.35 300.242 109.14 299.156 73.1 291.19L74.9939 268.491C110.143 278.211 157.909 280.272 211.58 272.501C268.398 264.257 321.261 246.515 361.285 224.289L362.928 243.814L363.012 244.649Z" fill="#B2430A"/>
<path d="M433.026 148.827C433.257 151.757 433.207 154.765 432.801 157.86C425.843 210.806 326.113 267.368 210.051 284.199C93.9892 301.027 5.54232 271.749 12.4998 218.803C12.9064 215.705 13.6612 212.597 14.6861 209.483C6.69541 219.697 1.70992 230.066 0.367454 240.279C-6.58998 293.226 86.1043 321.888 207.411 304.3C328.715 286.711 432.695 229.531 439.652 176.584C440.995 166.374 438.591 157.077 433.026 148.827Z" fill="white"/>
<defs>
<linearGradient id="paint0_linear_1288_2222" x1="219.992" y1="-11.3895" x2="219.992" y2="366.892" gradientUnits="userSpaceOnUse">
<stop stop-color="#FF3840"/>
<stop offset="1" stop-color="#FF6110"/>
</linearGradient>
<linearGradient id="paint1_linear_1288_2222" x1="219.622" y1="47.827" x2="219.622" y2="340.544" gradientUnits="userSpaceOnUse">
<stop stop-color="#FF3840"/>
<stop offset="1" stop-color="#FF6110"/>
</linearGradient>
<linearGradient id="paint2_linear_1288_2222" x1="219.623" y1="94.3638" x2="219.623" y2="303.929" gradientUnits="userSpaceOnUse">
<stop stop-color="#FF3840"/>
<stop offset="1" stop-color="#FF6110"/>
</linearGradient>
</defs>
</svg>
